<?xml version="1.0" encoding="iso-8859-1"?>
<!-- Uploaded to: SVG Repo, www.svgrepo.com, Generator: SVG Repo Mixer Tools -->
<!DOCTYPE svg PUBLIC "-//W3C//DTD SVG 1.1//EN" "http://www.w3.org/Graphics/SVG/1.1/DTD/svg11.dtd">
<svg fill="#000000" height="800px" width="800px" version="1.1" id="Capa_1" xmlns="http://www.w3.org/2000/svg" xmlns:xlink="http://www.w3.org/1999/xlink" 
	 viewBox="0 0 495.376 495.376" xml:space="preserve">
<path d="M478.816,193.753h-18.271c0,0-23.879-3.133-52.654-36.398c-4.414-5.109-9.714-9.102-15.338-12.558
	c1.774-15.525,10.14-30.06,15.907-38.326c1.153-1.653,1.341-3.81,0.494-5.621c-0.85-1.822-2.59-3.081-4.593-3.275
	c-23.872-2.363-54.046,21.748-71.267,37.792c-27.624-20.711-63.966-33.405-103.933-33.405c-75.375,0-138.262,44.797-152.951,104.378
	c-1.145-0.53-20.272-6.773-24.999-15.219c15.771,3.32,25.976-8.97,26.364-20.583c-0.122-6.25-1.707-9.964-6.095-14.523
	c-3.935-4.051-11.217-5.781-15.171-5.068c-13.672,1.079-23.015,10.246-23.015,28.13c-0.353-0.081-0.729-0.162-1.071-0.246
	c-9.212-3.191-9.024-2.816-17.092-8.447c-6.505-5.485-7.797-7.068-11.293-13.986c-1.456-2.219-4.853-0.154-3.544,2.164
	c3.902,7.324,4.374,9.171,11.314,15.849c7.452,6.28,12.41,8.825,22.651,11.914c7.742,30.429,39.077,37.034,39.272,37.1
	c-0.28,3.188-0.582,6.356-0.582,9.599c0,24.804,8.358,45.882,22.625,63.016l-0.261-0.066l29.632,94.849
	c1.299,4.159,5.146,6.986,9.492,6.986h17.373c5.495,0,9.949-4.454,9.949-9.952v-50.542c2.355,0.729,4.659,1.505,7.077,2.15
	l8.782,33.784c1.145,4.38,5.098,7.442,9.632,7.442h16.986c5.499,0,9.949-4.453,9.949-9.952v-24.207
	c17.309,1.244,41.823,0.408,73.27-2.54l12.102,46.531c1.145,4.376,5.097,7.441,9.624,7.441h16.994c5.499,0,9.952-4.453,9.952-9.952
	v-38.568l6.231,23.968c1.145,4.38,5.098,7.446,9.632,7.446h16.986c5.499,0,9.952-4.454,9.952-9.953v-45.393
	c6.161-2.378,12.002-4.951,17.074-7.884l-0.066-0.025c24.4-11.93,48.54-31.863,59.283-64.529h23.597
	c9.142,0,16.56-13.283,16.56-29.655C495.376,207.036,487.958,193.753,478.816,193.753z M47.671,182.346
	c-2.271-7.357-1.387-16.424,5.705-19.592c5.165-2.307,8.86-1.483,12.451,2.474c5.193,5.722,1.211,18.486-10.541,18.418
	C53.284,183.546,50.582,183.104,47.671,182.346z M484.617,233.024c-2.265,0-4.093-3.699-4.093-8.267
	c0-4.575,1.829-8.277,4.093-8.277c2.263,0,4.1,3.702,4.1,8.277C488.717,229.326,486.88,233.024,484.617,233.024z"/>
</svg>