<?xml version="1.0" encoding="iso-8859-1"?>
<!-- Uploaded to: SVG Repo, www.svgrepo.com, Generator: SVG Repo Mixer Tools -->
<!DOCTYPE svg PUBLIC "-//W3C//DTD SVG 1.1//EN" "http://www.w3.org/Graphics/SVG/1.1/DTD/svg11.dtd">
<svg fill="#000000" height="800px" width="800px" version="1.1" id="Capa_1" xmlns="http://www.w3.org/2000/svg" xmlns:xlink="http://www.w3.org/1999/xlink" 
	 viewBox="0 0 494.091 494.091" xml:space="preserve">
<path d="M432.05,256.783c0-27.414-28.188-50.23-65.576-55.36l0.868-192.044c0.015-3.998-2.507-7.564-6.28-8.867
	c-3.772-1.306-7.982-0.062-10.422,3.093c-20.269,26.098-34.982,93.295-35.253,149.042c-0.018,2.247,0.066,4.439,0.08,6.674
	l-49.66-143.484c-1.315-3.777-4.883-6.305-8.865-6.28c-3.998,0.015-7.548,2.576-8.817,6.367
	c-10.473,31.357-2.104,99.632,16.124,152.333c6.49,18.743,13.83,36.216,21.586,52.076c-14.485,13.87-26.291,35.945-33.711,62.982
	c-9.974-2.239-20.316-3.549-30.997-3.549c-71.132,0-129.304,52.636-134.458,119.37c-3.082-0.619-6.007-1.125-8.527-1.454
	c-2.857-0.362-5.832,0.409-8.301,2.135c-2.508,1.71-4.274,4.265-4.917,7.05c-3.149,13.83-6.408,39.045,5.975,56.814
	c13.813,19.836,33.374,31.184,49.015,30.204c0.066,0.065,0.114,0.145,0.178,0.206h202.104v-0.007h80.865
	c7.63,0,13.829-6.19,13.829-13.834c0-21.46-13.699-39.558-32.777-46.471c9.198-23.818,14.677-52.969,14.677-84.576
	c0-15.78-1.397-30.93-3.887-45.143C417.226,293.98,432.05,276.601,432.05,256.783z"/>
</svg>